<?xml version="1.0" standalone="no"?>
<!DOCTYPE svg PUBLIC "-//W3C//DTD SVG 20010904//EN"
 "http://www.w3.org/TR/2001/REC-SVG-20010904/DTD/svg10.dtd">
<svg version="1.0" xmlns="http://www.w3.org/2000/svg"
 width="50.000000pt" height="50.000000pt" viewBox="0 0 50.000000 50.000000"
 preserveAspectRatio="xMidYMid meet">

<g transform="translate(0.000000,50.000000) scale(0.100000,-0.100000)"
fill="#000000" stroke="none">
<path d="M182 480 c-204 -69 -241 -324 -65 -437 29 -18 55 -33 58 -33 3 0 5
11 5 25 0 19 -5 25 -21 25 -20 0 -89 64 -89 82 0 17 27 7 50 -17 26 -28 63
-30 68 -4 2 11 -7 18 -28 22 -19 4 -37 18 -50 39 -21 33 -22 66 -5 158 11 61
11 61 42 49 41 -17 163 -17 196 -1 16 7 31 11 35 8 5 -5 14 -48 29 -132 7 -47
-21 -101 -62 -115 l-33 -12 4 -60 c2 -33 5 -62 8 -64 7 -7 78 42 108 73 87 93
73 272 -28 349 -32 24 -134 66 -158 64 -6 0 -35 -9 -64 -19z"/>
</g>
</svg>
