<?xml version="1.0" standalone="no"?>
<!DOCTYPE svg PUBLIC "-//W3C//DTD SVG 20010904//EN"
 "http://www.w3.org/TR/2001/REC-SVG-20010904/DTD/svg10.dtd">
<svg version="1.0" xmlns="http://www.w3.org/2000/svg"
 width="50.000000pt" height="50.000000pt" viewBox="0 0 50.000000 50.000000"
 preserveAspectRatio="xMidYMid meet">

<g transform="translate(0.000000,50.000000) scale(0.100000,-0.100000)"
fill="#000000" stroke="none">
<path d="M60 440 c-18 -18 -20 -33 -20 -190 0 -225 -15 -210 210 -210 225 0
210 -15 210 210 0 225 15 210 -210 210 -157 0 -172 -2 -190 -20z m105 -85 c0
-22 -31 -33 -47 -17 -17 17 -1 44 24 40 15 -2 23 -10 23 -23z m5 -150 l0 -95
-30 0 -30 0 0 95 0 95 30 0 30 0 0 -95z m90 83 c0 -9 3 -9 12 0 19 19 76 14
98 -8 16 -16 20 -33 20 -95 l0 -75 -30 0 c-29 0 -30 1 -30 51 0 56 -13 89 -35
89 -22 0 -35 -33 -35 -89 0 -50 -1 -51 -30 -51 l-30 0 0 95 0 95 30 0 c17 0
30 -5 30 -12z"/>
</g>
</svg>
